# xmcd
#
# Track frame offsets:
#	183
#	12525
#	30153
#	40578
#	55670
#	68143
#	82275
#	93475
#	105185
#	115823
#
# Disc length: 1707 seconds
#
# Revision: 2
# Processed by: cddbd v1.4PL0 Copyright (c) Steve Scherf et al.
# Submitted via: EasyCDDAExtractor 5.0.0.0
#
DISCID=7106a90a
DTITLE=Howlin' Wolf - I Am The Wolf
DYEAR=1988
DGENRE=Blues
TTITLE0=Ain't Superstitious
TTITLE1=Goin' Down Slow
TTITLE2=Somebody Walkin' In My House
TTITLE3=Commit A Crime
TTITLE4=My Mind Is Ramlin'
TTITLE5=I Walked From Dallas
TTITLE6=My Country Sugar Moma
TTITLE7=Louise
TTITLE8=Hold On To Your Money
TTITLE9=Streamline Woman
EXTD=
EXTT0=
EXTT1=
EXTT2=
EXTT3=
EXTT4=
EXTT5=
EXTT6=
EXTT7=
EXTT8=
EXTT9=
PLAYORDER=
